<svg xmlns="http://www.w3.org/2000/svg" style="display: none;">
    <symbol id="logo" xmlns="http://www.w3.org/2000/svg" width="32" height="32" viewBox="0 0 32 32" fill="none">
        <path fill-rule="evenodd" clip-rule="evenodd" d="M16 32C24.8366 32 32 24.8366 32 16C32 7.16344 24.8366 0 16 0C7.16344 0 0 7.16344 0 16C0 24.8366 7.16344 32 16 32Z" fill="#EC7404"/>
        <path fill-rule="evenodd" clip-rule="evenodd" d="M16 28.8002C23.0693 28.8002 28.8 23.0694 28.8 16.0002C28.8 8.93095 23.0693 3.2002 16 3.2002C8.93077 3.2002 3.20001 8.93095 3.20001 16.0002C3.20001 23.0694 8.93077 28.8002 16 28.8002Z" fill="white"/>
        <path fill-rule="evenodd" clip-rule="evenodd" d="M16.6953 16.6416C17.3928 16.6416 17.957 17.1875 17.957 17.8625C17.957 18.5375 17.3928 19.0834 16.6953 19.0834C15.9978 19.0834 15.4336 18.5375 15.4336 17.8625C15.4336 17.1875 15.9978 16.6416 16.6953 16.6416" fill="#EC7404"/>
        <path fill-rule="evenodd" clip-rule="evenodd" d="M10.0791 8.7998C11.3613 8.7998 12.4076 9.81225 12.4076 11.053C12.4076 12.2937 11.3613 13.3062 10.0791 13.3062C8.79687 13.3062 7.74033 12.2937 7.74033 11.053C7.74033 9.80232 8.78661 8.7998 10.0791 8.7998" fill="#EC7404"/>
        <path fill-rule="evenodd" clip-rule="evenodd" d="M21.8447 11.877C22.891 11.877 23.7423 12.7008 23.7423 13.7132C23.7423 14.7257 22.891 15.5495 21.8447 15.5495C20.7984 15.5495 19.947 14.7257 19.947 13.7132C19.947 12.7008 20.7984 11.877 21.8447 11.877" fill="#EC7404"/>
        <path fill-rule="evenodd" clip-rule="evenodd" d="M21.847 15.9072V15.9072C22.8933 15.9072 23.6729 16.5623 23.7447 17.3564L24.2166 22.9546H19.4878L19.7852 19.3614L17.19 22.0712C17.0054 22.2598 16.749 22.3392 16.5028 22.3193C16.2771 22.2995 16.0617 22.2002 15.9181 22.0116V22.0116V22.0116L12.451 17.4953L12.1022 22.9447H8.21455L7.74269 15.5002C7.68114 14.5473 8.83001 13.7632 10.1533 13.7632C11.1483 13.7632 12.0407 14.1999 12.3997 14.8253L16.6361 20.3341L20.2571 16.5424C20.6161 16.1256 21.3034 15.9072 21.847 15.9072" fill="#3C9E2D"/>
    </symbol>
    <symbol id="light-icon" width="800px" height="800px" viewBox="0 0 24 24" fill="none" xmlns="http://www.w3.org/2000/svg">
        <path d="M3.32031 11.6835C3.32031 16.6541 7.34975 20.6835 12.3203 20.6835C16.1075 20.6835 19.3483 18.3443 20.6768 15.032C19.6402 15.4486 18.5059 15.6834 17.3203 15.6834C12.3497 15.6834 8.32031 11.654 8.32031 6.68342C8.32031 5.50338 8.55165 4.36259 8.96453 3.32996C5.65605 4.66028 3.32031 7.89912 3.32031 11.6835Z" stroke="#000000" stroke-width="2" stroke-linecap="round" stroke-linejoin="round"/>
    </symbol>
    <symbol id="dark-icon" width="800px" height="800px" viewBox="0 0 24 24" fill="none" xmlns="http://www.w3.org/2000/svg">
        <path d="M7.28451 10.3333C7.10026 10.8546 7 11.4156 7 12C7 14.7614 9.23858 17 12 17C14.7614 17 17 14.7614 17 12C17 9.23858 14.7614 7 12 7C11.4156 7 10.8546 7.10026 10.3333 7.28451" stroke="#FFFFFF" stroke-width="1.5" stroke-linecap="round"/>
        <path d="M12 2V4" stroke="#FFFFFF" stroke-width="1.5" stroke-linecap="round"/>
        <path d="M12 20V22" stroke="#FFFFFF" stroke-width="1.5" stroke-linecap="round"/>
        <path d="M4 12L2 12" stroke="#FFFFFF" stroke-width="1.5" stroke-linecap="round"/>
        <path d="M22 12L20 12" stroke="#FFFFFF" stroke-width="1.5" stroke-linecap="round"/>
        <path d="M19.7778 4.22266L17.5558 6.25424" stroke="#FFFFFF" stroke-width="1.5" stroke-linecap="round"/>
        <path d="M4.22217 4.22266L6.44418 6.25424" stroke="#FFFFFF" stroke-width="1.5" stroke-linecap="round"/>
        <path d="M6.44434 17.5557L4.22211 19.7779" stroke="#FFFFFF" stroke-width="1.5" stroke-linecap="round"/>
        <path d="M19.7778 19.7773L17.5558 17.5551" stroke="#FFFFFF" stroke-width="1.5" stroke-linecap="round"/>
    </symbol>
    <symbol id="menu" xmlns="http://www.w3.org/2000/svg" x="0px" y="0px" width="100" height="100" viewBox="0 0 50 50">
        <path d="M 3 8 A 2.0002 2.0002 0 1 0 3 12 L 47 12 A 2.0002 2.0002 0 1 0 47 8 L 3 8 z M 3 23 A 2.0002 2.0002 0 1 0 3 27 L 47 27 A 2.0002 2.0002 0 1 0 47 23 L 3 23 z M 3 38 A 2.0002 2.0002 0 1 0 3 42 L 47 42 A 2.0002 2.0002 0 1 0 47 38 L 3 38 z"></path>
    </symbol>
    <symbol id="close" width="24" height="24" viewBox="0 0 24 24" fill="none" xmlns="http://www.w3.org/2000/svg">
        <path d="M17 7L7 17L17 7Z" fill="#686E7E"/>
        <path d="M7 7L17 17L7 7Z" fill="#686E7E"/>
        <path d="M17 7L7 17M7 7L17 17" stroke="#686E7E" stroke-width="1.5" stroke-linecap="round" stroke-linejoin="round"/>
    </symbol>
    <symbol id="cross" width="30" height="30" viewBox="0 0 30 30" fill="none" xmlns="http://www.w3.org/2000/svg">
        <circle cx="15" cy="15" r="14.5" fill="white" stroke="#DCDCDC"/>
        <path d="M19.691 10.9557C19.7737 10.8759 19.8397 10.7805 19.8851 10.6749C19.9305 10.5694 19.9544 10.4558 19.9555 10.3409C19.9565 10.226 19.9347 10.112 19.8912 10.0057C19.8478 9.89929 19.7836 9.80264 19.7024 9.72135C19.6211 9.64006 19.5245 9.57575 19.4182 9.53219C19.3119 9.48863 19.1979 9.46668 19.083 9.46762C18.9681 9.46857 18.8546 9.49238 18.749 9.53769C18.6434 9.58299 18.5478 9.64887 18.468 9.73149L14.9995 13.1988L11.5322 9.73149C11.453 9.64646 11.3574 9.57827 11.2513 9.53097C11.1451 9.48367 11.0305 9.45824 10.9143 9.45619C10.7981 9.45414 10.6827 9.47551 10.575 9.51904C10.4672 9.56256 10.3693 9.62734 10.2872 9.70952C10.205 9.7917 10.1402 9.88958 10.0967 9.99734C10.0532 10.1051 10.0318 10.2205 10.0338 10.3367C10.0359 10.4529 10.0613 10.5675 10.1086 10.6736C10.1559 10.7798 10.2241 10.8753 10.3091 10.9546L13.7741 14.423L10.3068 17.8903C10.154 18.0544 10.0707 18.2714 10.0747 18.4956C10.0786 18.7197 10.1695 18.9337 10.328 19.0922C10.4866 19.2508 10.7005 19.3416 10.9247 19.3455C11.1489 19.3495 11.3658 19.2663 11.5299 19.1134L14.9995 15.6461L18.4668 19.1146C18.6309 19.2674 18.8478 19.3506 19.072 19.3467C19.2962 19.3427 19.5101 19.2519 19.6687 19.0934C19.8272 18.9348 19.9181 18.7209 19.922 18.4967C19.926 18.2725 19.8428 18.0555 19.6899 17.8915L16.2249 14.423L19.691 10.9557Z" fill="#373737"/>
    </symbol>
</svg>